<svg width="16" height="16" viewBox="0 0 16 16" fill="none" xmlns="http://www.w3.org/2000/svg">
<path d="M14.2998 4.7002V14C14.2998 14.718 13.718 15.2998 13 15.2998H3C2.28203 15.2998 1.7002 14.718 1.7002 14V4.7002H14.2998Z" stroke="#2D2D2D" stroke-width="1.4"/>
<path d="M14.2998 4.7002V14C14.2998 14.718 13.718 15.2998 13 15.2998H3C2.28203 15.2998 1.7002 14.718 1.7002 14V4.7002H14.2998Z" stroke="black" stroke-opacity="0.2" stroke-width="1.4"/>
<path d="M14.2998 4.7002V14C14.2998 14.718 13.718 15.2998 13 15.2998H3C2.28203 15.2998 1.7002 14.718 1.7002 14V4.7002H14.2998Z" stroke="black" stroke-opacity="0.2" stroke-width="1.4"/>
<mask id="path-2-inside-1_3504_32029" fill="white">
<path d="M3 3C3 1.34315 4.34315 0 6 0H10C11.6569 0 13 1.34315 13 3V5H3V3Z"/>
</mask>
<path d="M1.6 3C1.6 0.569947 3.56995 -1.4 6 -1.4H10C12.4301 -1.4 14.4 0.569947 14.4 3H11.6C11.6 2.11634 10.8837 1.4 10 1.4H6C5.11634 1.4 4.4 2.11634 4.4 3H1.6ZM13 5H3H13ZM1.6 5V3C1.6 0.569947 3.56995 -1.4 6 -1.4V1.4C5.11634 1.4 4.4 2.11634 4.4 3V5H1.6ZM10 -1.4C12.4301 -1.4 14.4 0.569947 14.4 3V5H11.6V3C11.6 2.11634 10.8837 1.4 10 1.4V-1.4Z" fill="#2D2D2D" mask="url(#path-2-inside-1_3504_32029)"/>
<path d="M1.6 3C1.6 0.569947 3.56995 -1.4 6 -1.4H10C12.4301 -1.4 14.4 0.569947 14.4 3H11.6C11.6 2.11634 10.8837 1.4 10 1.4H6C5.11634 1.4 4.4 2.11634 4.4 3H1.6ZM13 5H3H13ZM1.6 5V3C1.6 0.569947 3.56995 -1.4 6 -1.4V1.4C5.11634 1.4 4.4 2.11634 4.4 3V5H1.6ZM10 -1.4C12.4301 -1.4 14.4 0.569947 14.4 3V5H11.6V3C11.6 2.11634 10.8837 1.4 10 1.4V-1.4Z" fill="black" fill-opacity="0.2" mask="url(#path-2-inside-1_3504_32029)"/>
<path d="M1.6 3C1.6 0.569947 3.56995 -1.4 6 -1.4H10C12.4301 -1.4 14.4 0.569947 14.4 3H11.6C11.6 2.11634 10.8837 1.4 10 1.4H6C5.11634 1.4 4.4 2.11634 4.4 3H1.6ZM13 5H3H13ZM1.6 5V3C1.6 0.569947 3.56995 -1.4 6 -1.4V1.4C5.11634 1.4 4.4 2.11634 4.4 3V5H1.6ZM10 -1.4C12.4301 -1.4 14.4 0.569947 14.4 3V5H11.6V3C11.6 2.11634 10.8837 1.4 10 1.4V-1.4Z" fill="black" fill-opacity="0.2" mask="url(#path-2-inside-1_3504_32029)"/>
<line x1="7.98125" y1="8" x2="7.98125" y2="10" stroke="#2D2D2D" stroke-width="1.4"/>
<line x1="7.98125" y1="8" x2="7.98125" y2="10" stroke="black" stroke-opacity="0.2" stroke-width="1.4"/>
<line x1="7.98125" y1="8" x2="7.98125" y2="10" stroke="black" stroke-opacity="0.2" stroke-width="1.4"/>
</svg>
