<svg width="16" height="16" viewBox="0 0 16 16" fill="none" xmlns="http://www.w3.org/2000/svg">
<circle cx="8" cy="3.5" r="2.8" stroke="#2D2D2D" stroke-width="1.4"/>
<circle cx="8" cy="3.5" r="2.8" stroke="black" stroke-opacity="0.2" stroke-width="1.4"/>
<circle cx="8" cy="3.5" r="2.8" stroke="black" stroke-opacity="0.2" stroke-width="1.4"/>
<path d="M8 9.7002C11.3441 9.7002 13.5648 10.855 14.6719 11.6211C15.07 11.8968 15.2998 12.3971 15.2998 13V15.2998H0.700195V13C0.700195 12.3971 0.92996 11.8968 1.32812 11.6211C2.43524 10.855 4.65594 9.7002 8 9.7002Z" stroke="#2D2D2D" stroke-width="1.4"/>
<path d="M8 9.7002C11.3441 9.7002 13.5648 10.855 14.6719 11.6211C15.07 11.8968 15.2998 12.3971 15.2998 13V15.2998H0.700195V13C0.700195 12.3971 0.92996 11.8968 1.32812 11.6211C2.43524 10.855 4.65594 9.7002 8 9.7002Z" stroke="black" stroke-opacity="0.2" stroke-width="1.4"/>
<path d="M8 9.7002C11.3441 9.7002 13.5648 10.855 14.6719 11.6211C15.07 11.8968 15.2998 12.3971 15.2998 13V15.2998H0.700195V13C0.700195 12.3971 0.92996 11.8968 1.32812 11.6211C2.43524 10.855 4.65594 9.7002 8 9.7002Z" stroke="black" stroke-opacity="0.2" stroke-width="1.4"/>
</svg>
